<svg xmlns="http://www.w3.org/2000/svg" width="256" height="256"><path d="M0 0 C1.33817053 1.11924189 2.6721362 2.24354938 4 3.375 C4.99 4.096875 5.98 4.81875 7 5.5625 C21.24804178 17.71872401 28.71598005 36.98814015 30.34375 55.2265625 C31.02518067 82.19985987 19.79834828 105.7674087 2 125.375 C1.154375 126.30699219 0.30875 127.23898438 -0.5625 128.19921875 C-1.34625 129.06160156 -2.13 129.92398438 -2.9375 130.8125 C-9.0513349 137.54974919 -12.10595588 142.18894054 -12.140625 151.53515625 C-12.15897159 152.98373945 -12.17854358 154.43230754 -12.19921875 155.88085938 C-12.22800788 158.14958919 -12.24999563 160.41735585 -12.25048828 162.6862793 C-12.26699053 173.4327774 -13.18220112 181.83453129 -20.5 190.25 C-21.325 190.95125 -22.15 191.6525 -23 192.375 C-23.7425 193.07625 -24.485 193.7775 -25.25 194.5 C-33.81579901 200.34031751 -43.96148788 200.4543831 -54 199.375 C-61.64654572 197.65525592 -68.15967781 193.68343678 -72.50390625 187.09375 C-75.83647991 181.2451307 -77.1155238 176.97960134 -77.140625 170.1796875 C-77.15896756 168.72654701 -77.17853919 167.27342161 -77.19921875 165.8203125 C-77.22804296 163.54271168 -77.24999653 161.2660756 -77.25048828 158.98828125 C-77.26973494 146.38447171 -79.23097373 138.7797574 -88.265625 129.65795898 C-88.89984375 129.02833252 -89.5340625 128.39870605 -90.1875 127.75 C-108.66578812 108.6616222 -120.28622277 84.86993644 -120.31469727 57.92041016 C-119.9211127 37.36551425 -110.61572993 19.02377611 -96.25390625 4.62109375 C-69.51112468 -19.14623587 -28.75024264 -21.99393562 0 0 Z M-94.65429688 19.70849609 C-104.59061531 32.01352324 -110.26453487 48.54561738 -108.81591797 64.38818359 C-106.18177924 86.12607604 -96.3976691 104.40712165 -81.46313477 120.19287109 C-74.06154914 128.03252136 -69.01597501 134.81908747 -66 145.375 C-52.14 145.375 -38.28 145.375 -24 145.375 C-23.01 142.075 -22.02 138.775 -21 135.375 C-19.4921875 132.78125 -19.4921875 132.78125 -17.875 130.875 C-17.26011719 130.13765625 -16.64523438 129.4003125 -16.01171875 128.640625 C-13.92088776 126.28590272 -11.80855361 123.95252786 -9.6875 121.625 C7.49193558 102.69256079 19.9134249 81.99983208 18.84765625 55.6015625 C16.85328713 38.69690995 9.41357885 22.28013398 -4 11.375 C-32.13805821 -10.40250912 -71.1347383 -7.36164233 -94.65429688 19.70849609 Z M-66 156.375 C-67.06920718 170.65160625 -67.06920718 170.65160625 -61.421875 182.30078125 C-55.34466254 187.34145981 -50.35609593 188.60053943 -42.4375 188.25 C-35.5130303 187.55993257 -31.7530863 185.4825442 -27.1875 180.3125 C-21.36798826 172.49772709 -24 168.47599355 -24 156.375 C-37.86 156.375 -51.72 156.375 -66 156.375 Z " fill="#234881" transform="translate(173,35.625)"></path><path d="M0 0 C0.6796875 2.26953125 0.6796875 2.26953125 1 5 C-0.1171875 6.88671875 -0.1171875 6.88671875 -1.875 8.6875 C-2.52082031 9.36941406 -3.16664063 10.05132812 -3.83203125 10.75390625 C-4.54746094 11.49511719 -5.26289063 12.23632812 -6 13 C-7.52525492 14.70438676 -9.04599811 16.41282045 -10.5625 18.125 C-13.92127763 21.88436579 -17.41859418 25.45456239 -21 29 C-19.12054688 29.03867188 -19.12054688 29.03867188 -17.203125 29.078125 C-15.55204877 29.13441169 -13.90100845 29.1917589 -12.25 29.25 C-11.0125 29.27126953 -11.0125 29.27126953 -9.75 29.29296875 C-5.91738503 29.44750968 -3.61678508 29.59489264 -0.359375 31.734375 C1 34 1 34 0.90820312 36.28295898 C-0.30248236 39.9049264 -2.5170588 42.10958469 -5.171875 44.73828125 C-5.95102264 45.52672676 -5.95102264 45.52672676 -6.74591064 46.33110046 C-7.84382654 47.43610175 -8.94688135 48.53601781 -10.0546875 49.63110352 C-11.74633465 51.30886473 -13.412587 53.00925369 -15.078125 54.71289062 C-16.14958992 55.78530659 -17.22246106 56.85631981 -18.296875 57.92578125 C-18.79290222 58.43506668 -19.28892944 58.94435211 -19.79998779 59.46907043 C-22.09657876 61.7053052 -23.51847389 62.93257776 -26.73925781 63.38354492 C-29 63 -29 63 -30.875 61.9375 C-32.70983625 58.77750423 -31.82621384 56.46500252 -31 53 C-28.71484375 50.12890625 -28.71484375 50.12890625 -25.9375 47.5625 C-25.01839844 46.69753906 -24.09929687 45.83257812 -23.15234375 44.94140625 C-22.44207031 44.30074219 -21.73179688 43.66007812 -21 43 C-22.89685547 42.92652344 -22.89685547 42.92652344 -24.83203125 42.8515625 C-26.49220947 42.7765262 -28.15236464 42.70097873 -29.8125 42.625 C-31.06256836 42.57859375 -31.06256836 42.57859375 -32.33789062 42.53125 C-33.14033203 42.49257812 -33.94277344 42.45390625 -34.76953125 42.4140625 C-35.50792236 42.3826416 -36.24631348 42.3512207 -37.00708008 42.31884766 C-39 42 -39 42 -42 40 C-43.125 37.375 -43.125 37.375 -43 34 C-38.12927379 26.74071283 -30.75672257 20.57056085 -24.58325195 14.39794922 C-22.80064873 12.61313402 -21.02623305 10.82042884 -19.25195312 9.02734375 C-18.11246822 7.88492866 -16.97251115 6.74298428 -15.83203125 5.6015625 C-15.30591751 5.06826324 -14.77980377 4.53496399 -14.23774719 3.98550415 C-9.06620139 -1.15406911 -6.95157525 -2.84382624 0 0 Z " fill="#234982" transform="translate(149,76)"></path><path d="M0 0 C5.05561632 1.30276497 7.72003505 3.24944479 11.3125 7 C12.17488281 7.886875 13.03726563 8.77375 13.92578125 9.6875 C16.38828451 12.4328897 16.94365781 13.32389375 17.25 17 C17.12625 18.485 17.12625 18.485 17 20 C13.44534504 22.36976997 12.18859926 22.62752462 8 22 C5.57685403 20.39868765 3.67209086 18.42066439 1.6875 16.3125 C0.8821582 15.51682617 0.8821582 15.51682617 0.06054688 14.70507812 C-2.84983828 11.71395089 -5.01504889 9.39427703 -5 5 C-2.5625 2.1875 -2.5625 2.1875 0 0 Z " fill="#234881" transform="translate(207,138)"></path><path d="M0 0 C2.52655811 1.79509518 4.60829507 3.95675789 6.75 6.1875 C7.33910156 6.76564453 7.92820312 7.34378906 8.53515625 7.93945312 C13.98409274 13.48233679 13.98409274 13.48233679 14 18 C12.1550679 20.6254803 10.93487281 21.79462372 7.77734375 22.48828125 C3.43212404 21.72435373 1.19318077 18.95774951 -1.8125 15.875 C-2.40998047 15.30523437 -3.00746094 14.73546875 -3.62304688 14.1484375 C-6.4885294 11.26658079 -7.88785844 9.80589867 -8.4609375 5.6875 C-8 3 -8 3 -6.8125 1.125 C-4.21807105 -0.48533521 -3.04084858 -0.49482515 0 0 Z " fill="#234981" transform="translate(40,21)"></path><path d="M0 0 C2.5625 1 2.5625 1 3.5625 2 C4.18742078 5.202719 4.08455616 7.22078858 2.24609375 9.96484375 C0.43408712 12.07682463 -1.45644761 14.04603231 -3.4375 16 C-4.035625 16.62003906 -4.63375 17.24007812 -5.25 17.87890625 C-6.92196918 19.48743017 -8.42803535 20.83928183 -10.4375 22 C-13.875 21.875 -13.875 21.875 -16.4375 21 C-17.875 18.5 -17.875 18.5 -18.4375 15 C-16.58169953 11.86477394 -14.0603163 9.50294352 -11.4375 7 C-10.76332031 6.30648438 -10.08914062 5.61296875 -9.39453125 4.8984375 C-4.3497261 0 -4.3497261 0 0 0 Z " fill="#234881" transform="translate(220.4375,21)"></path><path d="M0 0 C2.5 1.375 2.5 1.375 3.8125 4 C4.1528125 5.175625 4.1528125 5.175625 4.5 6.375 C2.1973322 9.06961126 -0.14292157 11.72789044 -2.5 14.375 C-3.098125 15.06464844 -3.69625 15.75429687 -4.3125 16.46484375 C-8.68402159 21.23643763 -8.68402159 21.23643763 -12.8125 21.9375 C-15.5 21.375 -15.5 21.375 -17.5 19.375 C-18.0625 16.75 -18.0625 16.75 -17.5 13.375 C-14.20412865 8.52142576 -6.41735295 -1.60433824 0 0 Z " fill="#234982" transform="translate(49.5,138.625)"></path><path d="M0 0 C1.08667969 -0.01740234 1.08667969 -0.01740234 2.1953125 -0.03515625 C5.2060746 -0.01849152 7.44426344 0.01743307 10.015625 1.671875 C11.69999665 4.58610531 10.69952179 7.22715195 10 10.375 C7.8337132 12.5412868 3.06115783 11.60661742 0.0625 11.625 C-0.77474609 11.645625 -1.61199219 11.66625 -2.47460938 11.6875 C-3.27576172 11.69265625 -4.07691406 11.6978125 -4.90234375 11.703125 C-6.00823853 11.71714355 -6.00823853 11.71714355 -7.13647461 11.73144531 C-7.75143799 11.61381836 -8.36640137 11.49619141 -9 11.375 C-11.15502531 8.14246204 -11.46856135 7.12349077 -11 3.375 C-8.44461938 -0.71752528 -4.32428057 -0.06925004 0 0 Z " fill="#234981" transform="translate(224,84.625)"></path><path d="M0 0 C1.08667969 -0.01740234 1.08667969 -0.01740234 2.1953125 -0.03515625 C5.2060746 -0.01849152 7.44426344 0.01743307 10.015625 1.671875 C11.69999665 4.58610531 10.69952179 7.22715195 10 10.375 C7.8337132 12.5412868 3.06115783 11.60661742 0.0625 11.625 C-0.77474609 11.645625 -1.61199219 11.66625 -2.47460938 11.6875 C-3.27576172 11.69265625 -4.07691406 11.6978125 -4.90234375 11.703125 C-6.00823853 11.71714355 -6.00823853 11.71714355 -7.13647461 11.73144531 C-7.75143799 11.61381836 -8.36640137 11.49619141 -9 11.375 C-11.15502531 8.14246204 -11.46856135 7.12349077 -11 3.375 C-8.44461938 -0.71752528 -4.32428057 -0.06925004 0 0 Z " fill="#234982" transform="translate(32,84.625)"></path></svg>