<svg xmlns="http://www.w3.org/2000/svg" xmlns:xlink="http://www.w3.org/1999/xlink" width="512" height="512" x="0" y="0" viewBox="0 0 24 24" style="enable-background:new 0 0 512 512" xml:space="preserve" class=""><g><g data-name="Layer 2"><path d="M18.5 22.75h-13a2.25 2.25 0 0 1-2.25-2.25v-17A2.25 2.25 0 0 1 5.5 1.25h13a2.25 2.25 0 0 1 2.25 2.25v17a2.25 2.25 0 0 1-2.25 2.25zm-13-20a.75.75 0 0 0-.75.75v17a.75.75 0 0 0 .75.75h13a.75.75 0 0 0 .75-.75v-17a.75.75 0 0 0-.75-.75z" fill="#678fd5" opacity="1" data-original="#000000" class=""></path><path d="M17 9.75H7A.76.76 0 0 1 6.25 9V5A.75.75 0 0 1 7 4.25h10a.75.75 0 0 1 .75.75v4a.76.76 0 0 1-.75.75zm-9.25-1.5h8.5v-2.5h-8.5z" fill="#678fd5" opacity="1" data-original="#000000" class=""></path><circle cx="8" cy="12.5" r="1" fill="#678fd5" opacity="1" data-original="#000000" class=""></circle><circle cx="12" cy="12.5" r="1" fill="#678fd5" opacity="1" data-original="#000000" class=""></circle><circle cx="16" cy="12.5" r="1" fill="#678fd5" opacity="1" data-original="#000000" class=""></circle><circle cx="8" cy="15.5" r="1" fill="#678fd5" opacity="1" data-original="#000000" class=""></circle><circle cx="12" cy="15.5" r="1" fill="#678fd5" opacity="1" data-original="#000000" class=""></circle><circle cx="8" cy="18.5" r="1" fill="#678fd5" opacity="1" data-original="#000000" class=""></circle><circle cx="12" cy="18.5" r="1" fill="#678fd5" opacity="1" data-original="#000000" class=""></circle><path d="M16 19.5a.76.76 0 0 1-.75-.75v-3.5a.75.75 0 0 1 1.5 0v3.5a.76.76 0 0 1-.75.75z" fill="#678fd5" opacity="1" data-original="#000000" class=""></path></g></g></svg>