<svg xmlns="http://www.w3.org/2000/svg" xmlns:xlink="http://www.w3.org/1999/xlink" width="512" height="512" x="0" y="0" viewBox="0 0 64 64" style="enable-background:new 0 0 512 512" xml:space="preserve" class=""><g><path d="M37.844 38.832a10.153 10.153 0 0 0-1.122 3.592 15.14 15.14 0 0 1-15.145-15.146 10.256 10.256 0 0 0 3.592-1.12L14.886 15.874a6.086 6.086 0 0 0-1.892 2.713c-2.628 8.769.043 18.523 6.97 25.45a26.512 26.512 0 0 0 18.63 7.961 23.628 23.628 0 0 0 6.819-.992 6.271 6.271 0 0 0 2.72-1.885l-10.29-10.29zM47.848 37.66a6.46 6.46 0 0 0-9.126.036L49.14 48.115l1.65-1.657a4.137 4.137 0 0 0 0-5.848zM27.94 22.551c1.295-4.447-1.81-6.561-4.55-9.34a4.137 4.137 0 0 0-5.847 0l-1.65 1.657 10.411 10.41a6.343 6.343 0 0 0 1.635-2.727z" fill="#ffffff" opacity="1" data-original="#000000"></path><path d="M32 2a30 30 0 1 0 30 30A30.034 30.034 0 0 0 32 2zm0 58.39A28.39 28.39 0 1 1 60.39 32 28.422 28.422 0 0 1 32 60.39z" fill="#ffffff" opacity="1" data-original="#000000"></path></g></svg>