<svg xmlns="http://www.w3.org/2000/svg" xmlns:svg="http://www.w3.org/2000/svg" id="svg8" height="512" viewBox="0 0 25.399999 25.399999" width="512"><g id="layer2"><path id="path828" d="m87.962891 5.9785156c-.521469.01406-1.017262.2314078-1.38086.6054688l-8.582031 8.5878906-2.585938-2.585937c-1.437649-1.43765-3.091899-2.233024-4.722656-2.277344-.978803-.02661-1.88736.115634-2.966797.265625l-14 1.945312c-5.150634.715685-7.766271 2.922209-11.08789 6.017578l-34.4375002 32.091797c-.013856.01283-.027529.02585-.041016.03906-1.4885038 1.469631-2.133857 3.479427-2.15625 5.457031-.022375 1.977604.601367 4.069957 2.2617188 5.488281l-.1152341-.107419 26.3457035 26.345703-.107422-.115234c1.418326 1.660354 3.510677 2.284113 5.488281 2.261719 1.977604-.0223 3.987403-.667747 5.457031-2.15625.01321-.01349.02624-.02716.03906-.04102l2.365234-2.539062 9.419922 3.509765c2.046304.762432 4.141985.62096 5.931641-.220703 1.789651-.841682 3.349523-2.262327 4.068359-4.226562l10.337894-30.994137c3.078585-3.305357 5.273107-5.9218 5.986328-11.054687l1.945312-14c.15001-1.079505.292195-1.988136.265625-2.966797-.0443-1.630768-.839698-3.28501-2.277344-4.722656l-2.585937-2.585938 8.587891-8.5878906c1.306794-1.2721067.369798-3.487412-1.453125-3.4335938zm-17.38086 8.3300784c.78344.02128.941561.04312 2.003907 1.105468l2.585937 2.585938-4.591797 4.595703c-.783928-.378647-1.656515-.597656-2.578125-.597656-3.290022.000001-6.001953 2.711935-6.001953 6.001953 0 3.290019 2.711931 6.001952 6.001953 6.001953 3.290019-.000001 6.001953-2.711934 6.001953-6.001953 0-.921464-.219121-1.794291-.597656-2.578125l4.59375-4.59375 2.585938 2.585937c1.062349 1.062352 1.084182 1.220479 1.105468 2.003907.01285.469859-.07659 1.227173-.226562 2.30664l-1.945313 14c-.603118 4.340512-1.903479 5.608118-4.982422 8.91211l-32.054687 34.398437c-.518173.523488-1.587114.950827-2.652344.962891-1.066318.01209-1.981612-.369144-2.40039-.859375-.03428-.03981-.07012-.07825-.107422-.115234l-26.345704-26.345704c-.03699-.03731-.07543-.07314-.115234-.107422-.490239-.418779-.871449-1.334068-.859375-2.40039.01206-1.065226.439403-2.134167.962891-2.652344l.002-.002 34.396484-32.052734c3.303995-3.078943 4.571602-4.379305 8.91211-4.982422l14-1.945313c1.079531-.150002 1.836928-.239326 2.30664-.226562zm-2.580078 11.689453c1.128257 0 2 .873694 2 2.001953s-.871743 2-2 2c-1.128261 0-2-.871741-2-2s.871739-2.001953 2-2.001953zm-34.023437 21.984375c-1.792509.0023-2.677341 2.179643-1.394532 3.43164l12.001954 12.003907c1.889323 1.885415 4.717447-.94857 2.828124-2.833985l-12.003906-11.996093c-.376069-.38658-.892315-.60491-1.43164-.605469zm-6.001954 5.99414c-1.801851-.005-2.691074 2.188187-1.394531 3.439454l12.003907 11.996093c1.884384 2.012586 4.840059-.945133 2.826171-2.828125l-11.996093-11.99414c-.37664-.391401-.896267-.612789-1.439454-.613282zm42.951172 6.398438-7.529296 22.574219c-.253229.69191-1.048725 1.528602-2.013672 1.982422-.964948.453815-1.937169.440707-2.541016.214843l-8.15625-3.050781z" transform="scale(.265)"></path></g></svg>