<svg xmlns="http://www.w3.org/2000/svg" id="Layer_1" viewBox="0 0 512 512"><path d="m128.248 314.442c-36.208 0-65.666 29.458-65.666 65.666s29.458 65.666 65.666 65.666 65.666-29.458 65.666-65.666-29.457-65.666-65.666-65.666zm0 115.332c-27.386 0-49.666-22.28-49.666-49.666s22.28-49.666 49.666-49.666 49.666 22.28 49.666 49.666-22.28 49.666-49.666 49.666zm373.409-135.41-16.098-16.099c-2.635-2.635-6.741-3.102-9.9-1.125l-29.52 18.47c-1.5.938-2.646 2.347-3.259 4.005l-5.884 15.899-28.034 28.035c-16.959-25.943-39.788-47.78-66.562-63.509-17.25-10.134-35.907-17.578-55.295-22.151 29.37-14.312 51.256-41.9 57.449-75.465h1.415c12.175 0 22.08-9.904 22.08-22.079 0-10.286-7.072-18.952-16.608-21.393.001-.232.002-.463.002-.694 0-46.231-28.386-87.064-71.202-103.311-.727-4.304-2.643-8.23-5.68-11.57-10.006-11.007-28.236-11.868-33.616-11.868-.015 0-.03 0-.044 0-5.388 0-23.617.862-33.623 11.868-3.037 3.341-4.953 7.267-5.681 11.571-42.815 16.247-71.202 57.08-71.202 103.311 0 .231.001.462.002.694-9.537 2.44-16.608 11.106-16.608 21.393 0 12.174 9.905 22.079 22.079 22.079h1.415c6.197 33.582 28.103 61.181 57.496 75.487-14.157 3.335-27.927 8.195-41.014 14.505l-2.86-7.429c-1.188-3.089-4.156-5.126-7.466-5.126h-30.381c-3.31 0-6.277 2.038-7.466 5.126l-5.685 14.768c-7.865 2.217-15.428 5.353-22.57 9.357l-14.472-6.427c-3.024-1.344-6.563-.687-8.904 1.654l-21.483 21.483c-2.34 2.34-2.998 5.879-1.654 8.904l6.427 14.47c-4.005 7.143-7.141 14.705-9.358 22.572l-14.766 5.684c-3.089 1.187-5.127 4.155-5.127 7.464v30.382c0 3.31 2.038 6.277 5.126 7.466l14.763 5.683c2.218 7.871 5.354 15.436 9.359 22.577l-6.425 14.466c-1.344 3.025-.686 6.564 1.654 8.904l21.483 21.483c2.341 2.34 5.878 2.997 8.904 1.655l14.473-6.428c7.143 4.005 14.705 7.14 22.569 9.357l5.684 14.767c1.188 3.089 4.156 5.126 7.466 5.126h30.382c3.31 0 6.277-2.038 7.466-5.126l5.683-14.763c7.871-2.218 15.434-5.354 22.577-9.359l14.465 6.425c3.025 1.344 6.564.685 8.904-1.654l21.483-21.483c2.34-2.34 2.998-5.879 1.655-8.904l-2.247-5.059h73.106l-14.758 14.758c-3.124 3.124-3.124 8.189 0 11.313l31.646 31.646c1.5 1.5 3.535 2.343 5.657 2.343s4.157-.843 5.657-2.343l57.718-57.718h50.001c2.27 0 4.433-.964 5.95-2.653 1.517-1.688 2.246-3.941 2.004-6.199-1.91-17.84-6.199-35.272-12.748-51.904l36.75-36.75 15.899-5.883c1.659-.614 3.067-1.76 4.005-3.26l18.47-29.52c1.977-3.158 1.511-7.263-1.124-9.898zm-104.259 60.747-9.426 9.426v-22.994c3.325 4.365 6.482 8.881 9.426 13.568zm-178.283-320.972c3.551-3.905 12.504-6.631 21.786-6.631h.042c9.274 0 18.228 2.726 21.778 6.631 1.476 1.624 2.032 3.412 1.803 5.798-.013.135-.015.269-.021.403l-.022-.003-5.071 39.051c-.598 4.606-4.403 7.949-9.048 7.949h-18.887c-4.645 0-8.45-3.343-9.048-7.949l-5.072-39.051-.022.003c-.006-.134-.008-.268-.021-.403-.229-2.386.327-4.175 1.803-5.798zm-16.406 17.656 3.851 29.654c1.62 12.479 12.331 21.889 24.915 21.889h18.887c12.583 0 23.294-9.41 24.914-21.888l3.851-29.654c34.043 14.983 56.315 48.597 56.315 86.463v.008h-189.048c0-.003 0-.006 0-.008 0-37.867 22.272-71.481 56.315-86.464zm143.259 102.471c3.353 0 6.08 2.727 6.08 6.079s-2.727 6.079-6.08 6.079h-210.1c-3.352 0-6.079-2.727-6.079-6.079s2.727-6.079 6.079-6.079zm-192.355 28.157h174.61c-8.882 40.529-44.931 70.087-87.293 70.093-.004 0-.008 0-.012 0s-.008 0-.012 0c-42.363-.006-78.411-29.564-87.293-70.093zm87.305 86.093h.017c32.865.003 64.643 8.876 92.32 24.873v45.085h-109.406c-1.379-3.162-2.907-6.262-4.601-9.282l6.425-14.467c1.343-3.024.686-6.564-1.655-8.904l-21.483-21.483c-2.34-2.34-5.88-2.998-8.904-1.654l-14.472 6.427c-3.695-2.072-7.505-3.906-11.409-5.506 22.968-9.895 47.957-15.086 73.15-15.089zm-45.813 192.164-13.201-5.863c-2.413-1.072-5.196-.885-7.442.499-7.974 4.911-16.626 8.498-25.716 10.661-2.566.611-4.667 2.447-5.614 4.909l-5.185 13.471h-19.397l-5.187-13.475c-.947-2.462-3.048-4.298-5.614-4.909-9.082-2.161-17.731-5.747-25.709-10.659-2.247-1.382-5.028-1.569-7.441-.499l-13.208 5.866-13.715-13.715 5.864-13.202c1.071-2.412.884-5.196-.5-7.443-4.91-7.972-8.497-16.624-10.66-25.715-.611-2.566-2.447-4.667-4.909-5.614l-13.471-5.186v-19.396l13.473-5.186c2.462-.947 4.298-3.048 4.909-5.614 2.162-9.084 5.748-17.735 10.66-25.711 1.383-2.247 1.57-5.031.499-7.442l-5.865-13.206 13.715-13.715 13.208 5.866c2.41 1.071 5.195.884 7.441-.499 7.976-4.911 16.626-8.497 25.709-10.659 2.566-.611 4.667-2.447 5.614-4.909l5.187-13.475h19.396l5.187 13.475c.947 2.462 3.047 4.298 5.614 4.909 9.083 2.162 17.733 5.748 25.708 10.659 2.247 1.383 5.031 1.57 7.442.5l13.208-5.866 13.715 13.715-5.864 13.203c-1.071 2.411-.884 5.196.5 7.442 4.911 7.975 8.498 16.626 10.66 25.714.61 2.566 2.447 4.667 4.909 5.614l13.471 5.185v19.396l-13.475 5.187c-2.462.947-4.298 3.047-4.909 5.614-2.162 9.084-5.748 17.734-10.659 25.708-1.383 2.247-1.57 5.031-.499 7.442l5.866 13.208zm27.519-36.249c2.426-5.154 4.431-10.492 5.979-15.983l14.767-5.684c3.089-1.188 5.126-4.156 5.126-7.466v-30.382c0-3.31-2.038-6.277-5.126-7.466l-7.734-2.977h105.618c4.418 0 8-3.582 8-8v-42.693c8.058 5.832 15.66 12.319 22.718 19.41v57.348l-5.93 5.93c-5.704-3.242-13.098-2.449-17.958 2.411l-35.553 35.553zm96.452 56.747-20.332-20.333 59.914-59.914 20.332 20.333zm104.257-56.747h-28.26c.22-1.03.342-2.087.342-3.166 0-2.638-.688-5.163-1.957-7.39l21.758-21.758c3.675 10.495 6.396 21.302 8.117 32.314zm48.862-101.447-14.982 5.544c-1.082.4-2.064 1.03-2.88 1.846l-71.803 71.803-4.785-4.785 71.803-71.803c.816-.816 1.445-1.798 1.846-2.88l5.545-14.983 21.809-13.646 7.094 7.094z"></path></svg>